<svg width="16" height="16" viewBox="0 0 16 16" fill="none" xmlns="http://www.w3.org/2000/svg">
<g id="open-book 1" clip-path="url(#clip0_2_821)">
<g id="Group">
<g id="Group_2">
<g id="Group_3">
<path id="Vector" d="M0.80644 11.5807V3.80652C0.532259 3.8791 0.25804 3.96782 0 4.04845V13.863C2.16468 13.2647 4.46492 13.3835 6.55646 14.2017C5.13512 12.7646 3.19869 11.9546 1.17743 11.9517C0.97432 11.9474 0.810749 11.7838 0.80644 11.5807Z" fill="#9B9B9C"/>
<path id="Vector_2" d="M7.14487 13.0704C5.73441 11.7918 3.94802 10.9883 2.04121 10.788L2.06283 2.24249C4.10475 2.53868 5.94425 3.65851 7.14487 5.35021V13.0704Z" stroke="#9B9B9C"/>
<path id="Vector_3" d="M15.1938 3.82227V11.5884C15.1896 11.7915 15.026 11.9551 14.8229 11.9594C12.8061 11.9611 10.8743 12.7717 9.45996 14.2094V14.2174C11.5446 13.3963 13.839 13.2718 16.0003 13.8626V4.06416C15.7422 3.97548 15.4761 3.88679 15.1938 3.82227Z" fill="#9B9B9C"/>
<path id="Vector_4" d="M8.87109 13.0703V5.34879C10.0673 3.64472 11.9167 2.52142 13.9679 2.23859V10.7883C12.0635 10.9899 10.2798 11.7932 8.87109 13.0703Z" stroke="#9B9B9C"/>
</g>
</g>
</g>
</g>
<defs>
<clipPath id="clip0_2_821">
<rect width="16" height="16" fill="white"/>
</clipPath>
</defs>
</svg>
