<svg width="24" height="24" viewBox="0 0 24 24" fill="none" xmlns="http://www.w3.org/2000/svg">
<g id="more-horizontal">
<path id="icon" fill-rule="evenodd" clip-rule="evenodd" d="M18.3264 9.62882C18.2602 10.8609 17.8929 12.0775 17.3302 13.1862C15.6685 16.3958 12.474 18.1741 8.80171 17.9865C7.07591 17.8984 5.39648 17.3224 4 16.349C4.23976 16.3808 4.49958 16.4137 4.74039 16.426C6.18524 16.4998 7.59513 16.1012 8.76518 15.2981C7.42172 15.2098 6.265 14.2683 5.91089 12.9952C6.10946 13.0445 6.30909 13.0743 6.50976 13.0846C6.7907 13.0989 7.07375 13.0742 7.3589 13.0103C5.88969 12.6411 4.85434 11.3136 4.97335 9.8489L4.97546 9.80978C5.40432 10.067 5.87858 10.2285 6.39928 10.2747C5.52779 9.64189 5.05757 8.65698 5.11331 7.62049C5.14276 7.07291 5.31268 6.53251 5.61886 6.0775C7.14021 8.0966 9.46513 9.39195 12.0063 9.65901C11.9587 9.42126 11.9513 9.18556 11.9639 8.95088C12.0565 7.22992 13.5559 5.91418 15.3219 6.00437C16.1847 6.04844 17.0086 6.44351 17.577 7.10006C18.3068 7.00006 19.0028 6.78067 19.6438 6.46043C19.3651 7.15216 18.8298 7.75234 18.1476 8.09009C18.7929 8.06422 19.4044 7.91896 20 7.69445C19.5449 8.29873 18.9737 8.81864 18.3284 9.21711C18.3411 9.35503 18.3338 9.49192 18.3264 9.62882V9.62882Z" fill="#051ED6"/>
</g>
</svg>
